<svg width="128" height="128" viewBox="0 0 128 128" fill="none" xmlns="http://www.w3.org/2000/svg">
<path d="M64 5.33331C69.6579 5.33331 75.0842 7.58093 79.0849 11.5817C83.0857 15.5825 85.3333 21.0087 85.3333 26.6666L85.3227 26.96L85.4827 26.864C89.9769 24.2568 95.2729 23.3931 100.363 24.4373L101.627 24.736C104.321 25.4644 106.844 26.7181 109.052 28.4252C111.259 30.1322 113.108 32.2588 114.491 34.6826C117.304 39.5785 118.067 45.3883 116.613 50.8447C115.16 56.301 111.607 60.961 106.731 63.808L106.368 64L106.747 64.208C111.447 66.9566 114.923 71.3949 116.464 76.6177C118.005 81.8404 117.496 87.4544 115.04 92.3146L114.501 93.3067C113.118 95.7339 111.267 97.8634 109.057 99.5722C106.846 101.281 104.32 102.536 101.622 103.263C98.9247 103.991 96.1098 104.178 93.3398 103.813C90.5698 103.448 87.8994 102.538 85.4827 101.136L85.3227 101.029L85.3333 101.333C85.3333 106.807 83.2297 112.071 79.4575 116.036C75.6853 120.002 70.5331 122.366 65.0667 122.64L64 122.667C58.342 122.667 52.9158 120.419 48.915 116.418C44.9143 112.417 42.6667 106.991 42.6667 101.333L42.672 101.035L42.5173 101.136C38.0238 103.745 32.7277 104.611 27.6373 103.568L26.3787 103.269C23.6838 102.542 21.1594 101.288 18.9508 99.581C16.7421 97.874 14.8929 95.7471 13.5093 93.3226C10.6966 88.4286 9.93285 82.621 11.3845 77.1661C12.8361 71.7112 16.3855 67.0514 21.2587 64.2026L21.632 64L21.2533 63.7973C16.5525 61.0487 13.0773 56.6104 11.5362 51.3876C9.99513 46.1649 10.5043 40.5509 12.96 35.6906L13.4933 34.6933C14.877 32.2639 16.728 30.1326 18.9397 28.4223C21.1514 26.7121 23.6799 25.4568 26.3793 24.7289C29.0787 24.001 31.8955 23.8149 34.6672 24.1813C37.4389 24.5478 40.1105 25.4596 42.528 26.864L42.6667 26.96V26.6666C42.6666 21.1934 44.7703 15.9294 48.5425 11.9636C52.3147 7.99787 57.4669 5.63364 62.9333 5.35998L64 5.33331ZM64 48C59.7565 48 55.6869 49.6857 52.6863 52.6863C49.6857 55.6869 48 59.7565 48 64C48 68.2434 49.6857 72.3131 52.6863 75.3137C55.6869 78.3143 59.7565 80 64 80C68.2435 80 72.3131 78.3143 75.3137 75.3137C78.3143 72.3131 80 68.2434 80 64C80 59.7565 78.3143 55.6869 75.3137 52.6863C72.3131 49.6857 68.2435 48 64 48Z" fill="#FF7060"/>
</svg>
