<svg width="167" height="242" viewBox="0 0 167 242" fill="none" xmlns="http://www.w3.org/2000/svg">
<path d="M64.5 36.8596C65 37.3596 65 39.3596 64.5 39.8596C66.8333 41.6929 70.5 45.0308 72.5 46.5308C74.1971 47.8036 90 62.0308 94 43.5308C97.2 28.7308 75.8333 32.8596 64.5 36.8596Z" fill="#2A1F2D" stroke="#2A1F2D" stroke-linejoin="round"/>
<path d="M53 41.5307C52.3365 41.2863 51.2555 39.1942 51.5 38.5307C48.6132 37.8438 43.944 36.447 41.4995 35.9231C39.4253 35.4786 19.1151 29.1824 23.2351 47.656C26.5311 62.4349 44.3857 49.9116 53 41.5307Z" fill="#2A1F2D" stroke="#2A1F2D" stroke-linejoin="round"/>
<path d="M62.0001 32.3596C66.4999 22.3595 74.4036 1.91165 86.4036 13.1117C90.237 16.945 93.5038 26.0117 75.9038 31.6117L64 34.8596C63.5 33.3596 63.0001 32.8596 62.0001 32.3596Z" fill="#2A1F2D" stroke="#2A1F2D" stroke-linejoin="round"/>
<path d="M55.0001 31.5307C50.3111 21.618 39.6914 2.39384 56 0.530746C61.4041 0.101382 71.1594 4.0054 64 21.0307L60.5 31.3596C58 30.3596 56.5 31.0307 55.0001 31.5307Z" fill="#2A1F2D" stroke="#2A1F2D" stroke-linejoin="round"/>
<path d="M51.5 35.3596C41.0997 32.5978 19.7423 30.6298 28.4044 17.3584C31.417 13.079 40.1174 7.70697 48.5844 23.7361L53.2904 32.8967C52.5 33.3596 51.818 33.8605 51.5 35.3596Z" fill="#2A1F2D" stroke="#2A1F2D" stroke-linejoin="round"/>
<path d="M63.5 41.3596C60.3 44.9596 56.1667 43.8596 54.5 42.8596C36.5901 63.2547 28.6624 77.0359 39.5 129.36C28.7465 101.075 19.7834 93.7775 0.5 90.3596C6.55268 116.263 15.7745 124.726 37 134.86C62.8828 162.143 74.5 197.86 69.5 216.86C64.5 235.86 61.1321 242.796 66 240.86C70.7255 232.439 72.1888 227.013 74 216.86C74.9745 210.753 77.5226 207.359 86 201.36H112C117 201.36 122 198.36 114 196.36C107.6 194.76 104.333 186.36 103.5 182.36L103 137.86H129C137.5 137.86 141 151.36 143 151.36C144.6 151.36 145 149.026 145 147.86V120.36C145 119.36 144.6 117.36 143 117.36C141.4 117.36 140.333 119.36 140 120.36C139.6 127.56 131.167 130.36 127 130.86H103.5V72.3596C138.77 70.0357 156.498 70.6244 162.5 95.3596C163.936 96.2965 164.822 96.2063 166.5 95.3596L165.5 64.3596H83.5C77.5 65.5596 81 72.5262 83.5 75.8596C83.6667 109.36 83.9 178.26 83.5 185.86C83.1 193.46 77 200.026 74 202.36C74.5364 183.33 67.041 166.629 44 129.36C36.8162 119.539 33.9233 63.5044 55.5 51.3596C56 64.8596 64 77.8596 75.5 67.8596C84.7 59.8596 71.3333 46.8596 63.5 41.3596Z" fill="#2A1F2D"/>
<path d="M129 137.86C137.5 137.86 141 151.36 143 151.36C144.6 151.36 145 149.026 145 147.86V120.36C145 119.36 144.6 117.36 143 117.36C141.4 117.36 140.333 119.36 140 120.36C139.6 127.56 131.167 130.36 127 130.86H103.5V72.3596C138.77 70.0357 156.498 70.6244 162.5 95.3596C163.936 96.2965 164.822 96.2063 166.5 95.3596L165.5 64.3596H83.5C77.5 65.5596 81 72.5262 83.5 75.8596C83.6667 109.36 83.9 178.26 83.5 185.86C83.1 193.46 77 200.026 74 202.36C74.5364 183.33 67.041 166.629 44 129.36C36.8162 119.539 33.9233 63.5044 55.5 51.3596C56 64.8596 64 77.8596 75.5 67.8596C84.7 59.8596 71.3333 46.8596 63.5 41.3596C60.3 44.9596 56.1667 43.8596 54.5 42.8596C36.5901 63.2547 28.6624 77.0359 39.5 129.36C28.7465 101.075 19.7834 93.7775 0.5 90.3596C6.55268 116.263 15.7745 124.726 37 134.86C62.8828 162.143 74.5 197.86 69.5 216.86C64.5 235.86 61.1321 242.796 66 240.86C70.7255 232.439 72.1888 227.013 74 216.86C74.9745 210.753 77.5226 207.359 86 201.36M129 137.86C122.2 137.86 108.833 137.86 103 137.86M129 137.86H103M103 137.86L103.5 182.36C104.333 186.36 107.6 194.76 114 196.36C122 198.36 117 201.36 112 201.36M112 201.36C108 201.36 93 201.36 86 201.36M112 201.36H86" stroke="#2A1F2D" stroke-linejoin="round"/>
</svg>
